<svg width="20" height="20" viewBox="0 0 20 20" fill="none" xmlns="http://www.w3.org/2000/svg">
<path d="M10 0C11.0708 0 18.125 4.07167 18.66 5C19.1975 5.92917 19.1975 14.0708 18.66 15C18.1225 15.9292 11.0725 20 10 20C8.92751 20 1.87501 15.9292 1.33751 15C0.803348 14.0708 0.803348 5.92917 1.33751 5C1.87501 4.07167 8.92918 0 10 0ZM11.9125 5.66583C11.795 5.66583 11.6975 5.76167 11.6975 5.88083V9.11H8.30251V5.75667H8.88668C9.00418 5.75667 9.09835 5.66083 9.09835 5.54167C9.09835 5.46333 9.05751 5.395 8.99585 5.3575L7.68585 4.1C7.64501 4.0475 7.56835 4.00917 7.49751 4.00917C7.42751 4.00917 7.36418 4.04667 7.32501 4.09833L5.92501 5.35833C5.86501 5.39583 5.82501 5.46333 5.82501 5.54C5.82501 5.65917 5.91918 5.755 6.03751 5.755H6.62418L6.63085 14.1175C6.63085 14.2383 6.72335 14.3325 6.84251 14.3325H8.08585C8.20418 14.3325 8.30168 14.2367 8.30168 14.1192V10.7825H11.6958V14.2425H11.1133C10.9942 14.2425 10.9 14.3383 10.9 14.4575C10.9 14.5342 10.94 14.6025 10.9992 14.64L12.315 15.8983C12.3517 15.9492 12.4325 15.9892 12.5025 15.9892C12.5733 15.9892 12.635 15.9517 12.6758 15.8983L14.075 14.64C14.135 14.6025 14.175 14.5342 14.175 14.4575C14.175 14.3383 14.0792 14.2425 13.9625 14.2425H13.3758L13.37 5.88083C13.37 5.76 13.275 5.66417 13.1575 5.66417H11.9125V5.66583Z" fill="black"/>
</svg>
